PathFileType	4	(X/Y/Z)	C:\Users\italobelli\Desktop\GitHub\PTbot_officialCBL\Personal_Results\ABD21_noisy2.trc
DataRate	CameraRate	NumFrames	NumMarkers	Units	OrigDataRate	OrigDataStartFrame	OrigNumFrames
106.533333	106.533333	42	9	m	106.533333	501	800
Frame#	Time		gu		centelbow		EpL		centpxt8		centijc7		ij		ts		aa		ai
			X1	Y1	Z1	X2	Y2	Z2	X3	Y3	Z3	X4	Y4	Z4	X5	Y5	Z5	X6	Y6	Z6	X7	Y7	Z7	X8	Y8	Z8	X9	Y9	Z9

501	4.6934	-0.10635	0.058297	0.12011	-0.078941	0.09147	0.34791	-0.093086	0.11871	0.33968	-0.046816	-0.15316	-0.008669	-0.046816	0.031938	-0.008669	0	0	0	-0.13055	-0.0019542	0.024736	-0.14581	0.064203	0.12122	-0.12991	-0.091165	0.091915
502	4.7028	-0.1063	0.057877	0.12054	-0.078815	0.08786	0.34913	-0.092929	0.1152	0.34124	-0.046816	-0.15316	-0.008669	-0.046816	0.031938	-0.008669	0	0	0	-0.13048	-0.0014426	0.024469	-0.14568	0.063724	0.12157	-0.12985	-0.091322	0.090693
503	4.7121	-0.10626	0.057448	0.12098	-0.07869	0.08423	0.35033	-0.092774	0.11167	0.34279	-0.046816	-0.15316	-0.008669	-0.046816	0.031938	-0.008669	0	0	0	-0.1304	-0.00092772	0.024204	-0.14554	0.06324	0.12193	-0.1298	-0.091476	0.089468
504	4.7215	-0.10621	0.057012	0.12142	-0.078566	0.080584	0.35151	-0.092621	0.10812	0.34432	-0.046816	-0.15316	-0.008669	-0.046816	0.031938	-0.008669	0	0	0	-0.13033	-0.00041042	0.023943	-0.1454	0.062753	0.12228	-0.12975	-0.091626	0.088241
505	4.7309	-0.10616	0.056568	0.12186	-0.078443	0.076924	0.35268	-0.09247	0.10456	0.34584	-0.046816	-0.15316	-0.008669	-0.046816	0.031938	-0.008669	0	0	0	-0.13026	0.00010855	0.023685	-0.14527	0.062263	0.12263	-0.12971	-0.091773	0.087015
506	4.7403	-0.10611	0.056117	0.12231	-0.078322	0.073251	0.35383	-0.092322	0.10098	0.34734	-0.046816	-0.15316	-0.008669	-0.046816	0.031938	-0.008669	0	0	0	-0.13018	0.00062842	0.02343	-0.14513	0.06177	0.12298	-0.12967	-0.091917	0.085791
507	4.7497	-0.10607	0.055659	0.12276	-0.078202	0.069569	0.35496	-0.092177	0.097382	0.34883	-0.046816	-0.15316	-0.008669	-0.046816	0.031938	-0.008669	0	0	0	-0.13011	0.0011484	0.023181	-0.145	0.061276	0.12334	-0.12963	-0.092056	0.08457
508	4.7591	-0.10602	0.055194	0.1232	-0.078084	0.065878	0.35607	-0.092036	0.093776	0.3503	-0.046816	-0.15316	-0.008669	-0.046816	0.031938	-0.008669	0	0	0	-0.13004	0.0016678	0.022936	-0.14486	0.060779	0.12369	-0.12959	-0.092192	0.083356
509	4.7685	-0.10598	0.054723	0.12366	-0.077968	0.062182	0.35716	-0.091898	0.090162	0.35174	-0.046816	-0.15316	-0.008669	-0.046816	0.031938	-0.008669	0	0	0	-0.12997	0.0021858	0.022696	-0.14473	0.060282	0.12404	-0.12955	-0.092324	0.082148
510	4.7778	-0.10594	0.054247	0.12411	-0.077854	0.058482	0.35822	-0.091764	0.086541	0.35316	-0.046816	-0.15316	-0.008669	-0.046816	0.031938	-0.008669	0	0	0	-0.1299	0.0027016	0.022461	-0.14459	0.059784	0.12439	-0.12952	-0.092452	0.080949
511	4.7872	-0.10589	0.053764	0.12456	-0.077742	0.054781	0.35926	-0.091634	0.082915	0.35456	-0.046816	-0.15316	-0.008669	-0.046816	0.031938	-0.008669	0	0	0	-0.12984	0.0032145	0.022233	-0.14446	0.059286	0.12474	-0.1295	-0.092576	0.079761
512	4.7966	-0.10585	0.053277	0.12502	-0.077633	0.05108	0.36028	-0.091508	0.079286	0.35594	-0.046816	-0.15316	-0.008669	-0.046816	0.031938	-0.008669	0	0	0	-0.12977	0.0037237	0.022011	-0.14433	0.058787	0.12509	-0.12947	-0.092695	0.078586
513	4.806	-0.10581	0.052785	0.12547	-0.077526	0.047383	0.36127	-0.091387	0.075658	0.35729	-0.046816	-0.15316	-0.008669	-0.046816	0.031938	-0.008669	0	0	0	-0.12971	0.0042285	0.021797	-0.14419	0.05829	0.12545	-0.12945	-0.092809	0.077424
514	4.8154	-0.10577	0.052288	0.12593	-0.077423	0.043691	0.36223	-0.091272	0.07203	0.35861	-0.046816	-0.15316	-0.008669	-0.046816	0.031938	-0.008669	0	0	0	-0.12964	0.004728	0.021589	-0.14406	0.057794	0.1258	-0.12943	-0.092919	0.076279
515	4.8248	-0.10573	0.051787	0.12639	-0.077322	0.040006	0.36316	-0.091161	0.068407	0.3599	-0.046816	-0.15316	-0.008669	-0.046816	0.031938	-0.008669	0	0	0	-0.12958	0.0052215	0.021389	-0.14393	0.057299	0.12614	-0.12942	-0.093024	0.075151
516	4.8342	-0.10569	0.051282	0.12685	-0.077226	0.03633	0.36407	-0.091057	0.064789	0.36116	-0.046816	-0.15316	-0.008669	-0.046816	0.031938	-0.008669	0	0	0	-0.12952	0.0057082	0.021197	-0.1438	0.056807	0.12649	-0.12941	-0.093125	0.074042
517	4.8436	-0.10565	0.050774	0.1273	-0.077132	0.032666	0.36494	-0.090958	0.06118	0.3624	-0.046816	-0.15316	-0.008669	-0.046816	0.031938	-0.008669	0	0	0	-0.12946	0.0061874	0.021014	-0.14367	0.056317	0.12684	-0.1294	-0.093219	0.072954
518	4.8529	-0.10561	0.050263	0.12776	-0.077043	0.029016	0.36579	-0.090866	0.05758	0.36359	-0.046816	-0.15316	-0.008669	-0.046816	0.031938	-0.008669	0	0	0	-0.12941	0.0066583	0.02084	-0.14354	0.05583	0.12719	-0.1294	-0.093309	0.071888
519	4.8623	-0.10557	0.049749	0.12822	-0.076957	0.025382	0.3666	-0.09078	0.053992	0.36476	-0.046816	-0.15316	-0.008669	-0.046816	0.031938	-0.008669	0	0	0	-0.12935	0.0071202	0.020675	-0.14341	0.055346	0.12753	-0.1294	-0.093393	0.070847
520	4.8717	-0.10553	0.049232	0.12868	-0.076876	0.021766	0.36737	-0.0907	0.050419	0.36589	-0.046816	-0.15316	-0.008669	-0.046816	0.031938	-0.008669	0	0	0	-0.1293	0.0075722	0.02052	-0.14328	0.054867	0.12788	-0.1294	-0.093472	0.069832
521	4.8811	-0.10549	0.048713	0.12914	-0.076798	0.01817	0.36811	-0.090628	0.046862	0.36698	-0.046816	-0.15316	-0.008669	-0.046816	0.031938	-0.008669	0	0	0	-0.12925	0.0080136	0.020375	-0.14315	0.054391	0.12822	-0.12941	-0.093545	0.068845
522	4.8905	-0.10546	0.048193	0.1296	-0.076726	0.014597	0.36882	-0.090564	0.043323	0.36803	-0.046816	-0.15316	-0.008669	-0.046816	0.031938	-0.008669	0	0	0	-0.12921	0.0084437	0.02024	-0.14302	0.053921	0.12856	-0.12942	-0.093612	0.067888
523	4.8999	-0.10542	0.047671	0.13006	-0.076658	0.011048	0.36949	-0.090507	0.039805	0.36905	-0.046816	-0.15316	-0.008669	-0.046816	0.031938	-0.008669	0	0	0	-0.12916	0.0088616	0.020117	-0.14289	0.053456	0.1289	-0.12944	-0.093673	0.066961
524	4.9093	-0.10538	0.047148	0.13052	-0.076596	0.0075265	0.37011	-0.090458	0.036309	0.37002	-0.046816	-0.15316	-0.008669	-0.046816	0.031938	-0.008669	0	0	0	-0.12912	0.0092666	0.020006	-0.14277	0.052997	0.12924	-0.12946	-0.093728	0.066068
525	4.9186	-0.10535	0.046625	0.13097	-0.076538	0.0040337	0.3707	-0.090417	0.032838	0.37095	-0.046816	-0.15316	-0.008669	-0.046816	0.031938	-0.008669	0	0	0	-0.12908	0.0096579	0.019906	-0.14264	0.052544	0.12958	-0.12948	-0.093777	0.065209
526	4.928	-0.10531	0.046101	0.13143	-0.076486	0.00057208	0.37125	-0.090385	0.029394	0.37184	-0.046816	-0.15316	-0.008669	-0.046816	0.031938	-0.008669	0	0	0	-0.12904	0.010035	0.019819	-0.14252	0.052098	0.12991	-0.12951	-0.09382	0.064387
527	4.9374	-0.10528	0.045577	0.13189	-0.07644	-0.0028562	0.37176	-0.090361	0.025978	0.37268	-0.046816	-0.15316	-0.008669	-0.046816	0.031938	-0.008669	0	0	0	-0.12901	0.010397	0.019744	-0.14239	0.051659	0.13024	-0.12954	-0.093855	0.063602
528	4.9468	-0.10524	0.045053	0.13234	-0.076399	-0.006249	0.37223	-0.090347	0.022594	0.37348	-0.046816	-0.15316	-0.008669	-0.046816	0.031938	-0.008669	0	0	0	-0.12898	0.010742	0.019683	-0.14227	0.051227	0.13057	-0.12957	-0.093885	0.062858
529	4.9562	-0.10521	0.04453	0.13279	-0.076364	-0.0096042	0.37265	-0.090342	0.019243	0.37423	-0.046816	-0.15316	-0.008669	-0.046816	0.031938	-0.008669	0	0	0	-0.12895	0.011071	0.019635	-0.14214	0.050804	0.1309	-0.12961	-0.093907	0.062154
530	4.9656	-0.10517	0.044009	0.13324	-0.076336	-0.01292	0.37302	-0.090348	0.015926	0.37493	-0.046816	-0.15316	-0.008669	-0.046816	0.031938	-0.008669	0	0	0	-0.12892	0.011383	0.019601	-0.14202	0.050389	0.13123	-0.12966	-0.093922	0.061495
531	4.975	-0.10514	0.043488	0.13369	-0.076314	-0.016193	0.37335	-0.090363	0.012647	0.37558	-0.046816	-0.15316	-0.008669	-0.046816	0.031938	-0.008669	0	0	0	-0.1289	0.011676	0.019582	-0.1419	0.049983	0.13156	-0.12971	-0.09393	0.060879
532	4.9844	-0.10511	0.042969	0.13414	-0.076298	-0.019422	0.37364	-0.090388	0.0094076	0.37617	-0.046816	-0.15316	-0.008669	-0.046816	0.031938	-0.008669	0	0	0	-0.12888	0.01195	0.019577	-0.14178	0.049587	0.13188	-0.12976	-0.093931	0.060311
533	4.9937	-0.10507	0.042452	0.13458	-0.07629	-0.022605	0.37387	-0.090424	0.0062093	0.37672	-0.046816	-0.15316	-0.008669	-0.046816	0.031938	-0.008669	0	0	0	-0.12887	0.012205	0.019588	-0.14166	0.049201	0.1322	-0.12982	-0.093925	0.059791
534	5.0031	-0.10504	0.041937	0.13503	-0.07629	-0.025743	0.37406	-0.090472	0.0030508	0.37721	-0.046816	-0.15316	-0.008669	-0.046816	0.031938	-0.008669	0	0	0	-0.12886	0.01244	0.019614	-0.14154	0.048824	0.13252	-0.12988	-0.093911	0.059319
535	5.0125	-0.10501	0.041412	0.13548	-0.076324	-0.028886	0.37418	-0.090545	-0.00011385	0.37764	-0.046816	-0.15316	-0.008669	-0.046816	0.031938	-0.008669	0	0	0	-0.12885	0.012667	0.019653	-0.14142	0.048451	0.13283	-0.12996	-0.093894	0.058863
536	5.0219	-0.10498	0.040874	0.13595	-0.076399	-0.032046	0.37423	-0.090648	-0.0032977	0.37801	-0.046816	-0.15316	-0.008669	-0.046816	0.031938	-0.008669	0	0	0	-0.12885	0.012891	0.019703	-0.14131	0.048077	0.13315	-0.13005	-0.093876	0.058414
537	5.0313	-0.10495	0.040324	0.13643	-0.076513	-0.035223	0.37423	-0.090778	-0.0064993	0.37833	-0.046816	-0.15316	-0.008669	-0.046816	0.031938	-0.008669	0	0	0	-0.12885	0.013111	0.019764	-0.1412	0.047705	0.13347	-0.13015	-0.093855	0.057971
538	5.0407	-0.10492	0.039762	0.13693	-0.076665	-0.038415	0.37416	-0.090935	-0.0097169	0.3786	-0.046816	-0.15316	-0.008669	-0.046816	0.031938	-0.008669	0	0	0	-0.12886	0.013328	0.019836	-0.14109	0.047333	0.13379	-0.13026	-0.093834	0.057536
539	5.0501	-0.1049	0.039189	0.13743	-0.076854	-0.041619	0.37403	-0.091119	-0.012949	0.3788	-0.046816	-0.15316	-0.008669	-0.046816	0.031938	-0.008669	0	0	0	-0.12887	0.013542	0.019918	-0.14098	0.046962	0.13411	-0.13039	-0.09381	0.057107
540	5.0594	-0.10487	0.038605	0.13795	-0.077079	-0.044835	0.37385	-0.091328	-0.016194	0.37896	-0.046816	-0.15316	-0.008669	-0.046816	0.031938	-0.008669	0	0	0	-0.12889	0.013753	0.020009	-0.14087	0.046592	0.13443	-0.13052	-0.093785	0.056685
541	5.0688	-0.10485	0.03801	0.13847	-0.077338	-0.04806	0.3736	-0.091562	-0.01945	0.37906	-0.046816	-0.15316	-0.008669	-0.046816	0.031938	-0.008669	0	0	0	-0.12891	0.01396	0.020111	-0.14077	0.046223	0.13475	-0.13067	-0.093759	0.05627
542	5.0782	-0.10483	0.037406	0.13901	-0.07763	-0.051293	0.3733	-0.09182	-0.022716	0.37911	-0.046816	-0.15316	-0.008669	-0.046816	0.031938	-0.008669	0	0	0	-0.12894	0.014164	0.020221	-0.14066	0.045855	0.13507	-0.13083	-0.09373	0.055862
